<?xml version="1.0" encoding="utf-8"?>
<!-- Generator: Adobe Illustrator 24.0.1, SVG Export Plug-In . SVG Version: 6.00 Build 0)  -->
<svg version="1.1" xmlns="http://www.w3.org/2000/svg" xmlns:xlink="http://www.w3.org/1999/xlink" x="0px" y="0px"
	 viewBox="0 0 609.4 609.4" style="enable-background:new 0 0 609.4 609.4;" xml:space="preserve">
<style type="text/css">
	.st0{clip-path:url(#SVGID_2_);fill:#4EBED6;}
	.st1{clip-path:url(#SVGID_2_);fill:#14ADCC;stroke:#0C94B3;stroke-width:6;stroke-miterlimit:10;}
	.st2{clip-path:url(#SVGID_2_);fill:#1D99B8;stroke:#027B9C;stroke-width:6;stroke-miterlimit:10;}
	.st3{clip-path:url(#SVGID_2_);fill:#46C9E5;stroke:#18BCDE;stroke-width:3;stroke-miterlimit:10;}
	.st4{clip-path:url(#SVGID_2_);}
	.st5{clip-path:url(#SVGID_4_);fill:#74D0ED;}
	.st6{clip-path:url(#SVGID_4_);fill:#69C1D5;stroke:#3DB2CC;stroke-width:6;stroke-miterlimit:10;}
	.st7{clip-path:url(#SVGID_4_);fill:#03748E;stroke:#02576B;stroke-width:6;stroke-miterlimit:10;}
	.st8{clip-path:url(#SVGID_4_);fill:#D9EFF4;stroke:#9ADDE8;stroke-width:4;stroke-miterlimit:10;}
	.st9{fill:#FFFFFF;}
	.st10{display:none;fill:#FFFFFF;}
	.st11{clip-path:url(#SVGID_6_);fill:#FFFFFF;}
	.st12{clip-path:url(#SVGID_6_);}
	.st13{clip-path:url(#SVGID_8_);fill:#F9D49C;}
	.st14{fill:#F9D49C;}
	.st15{display:none;}
</style>
<g id="Layer_2">
	<g>
		<defs>
			<circle id="SVGID_1_" cx="310.4" cy="304.7" r="264.8"/>
		</defs>
		<clipPath id="SVGID_2_">
			<use xlink:href="#SVGID_1_"  style="overflow:visible;"/>
		</clipPath>
		<rect x="-9" y="2.9" class="st0" width="601" height="588.6"/>
		<path class="st1" d="M479.6,508.4C155.1,243.5,188.3,239.7,20.9,346.7C4.7,357-25.7,305.1-25.7,305.1V644l660.9,7.6L479.6,508.4z"
			/>
		<path class="st2" d="M113.2,554.5C172,506.9,391.4,363.9,648,337.6s15,270.3,15,270.3l-551.9,48.8L113.2,554.5z"/>
		<path class="st3" d="M68.9,153.5c0,0,190.2,0.5,219.2,0.1c22.5-0.3,19.2-24.7-1.1-25.3s-17.1-19.8-37.2-19.8
			c-12,0-13.2,8.7-22.2,9.6c-14.4,1.6-14.1-14.6-35.7-14.7c-17-0.1-20.4,12.2-34.2,12.2c-12.9,0-36.7-14.3-50.1-7.9
			C79.6,121.2,68.9,153.5,68.9,153.5z"/>
		<g class="st4">
			<defs>
				<circle id="SVGID_3_" cx="309" cy="303.7" r="246"/>
			</defs>
			<clipPath id="SVGID_4_">
				<use xlink:href="#SVGID_3_"  style="overflow:visible;"/>
			</clipPath>
			<rect x="-14" y="-22.5" class="st5" width="767.1" height="689.5"/>
			<path class="st6" d="M479.6,508.4C155.1,243.5,188.3,239.7,20.9,346.7C4.7,357-25.7,305.1-25.7,305.1V644l660.9,7.6L479.6,508.4z
				"/>
			<path class="st7" d="M113.2,554.5C172,506.9,391.4,363.9,648,337.6s15,270.3,15,270.3l-551.9,48.8L113.2,554.5z"/>
			<path class="st8" d="M68.9,153.5c0,0,190.2,0.5,219.2,0.1c22.5-0.3,19.2-24.7-1.1-25.3s-17.1-19.8-37.2-19.8
				c-12,0-13.2,8.7-22.2,9.6c-14.4,1.6-14.1-14.6-35.7-14.7c-17-0.1-20.4,12.2-34.2,12.2c-12.9,0-36.7-14.3-50.1-7.9
				C79.6,121.2,68.9,153.5,68.9,153.5z"/>
		</g>
	</g>
</g>
<g id="Layer_5">
	<path d="M175.9,374.4 M161.2,352.7c0.3-0.8,10.9-6.3,10.2-6.5c0.8-1,1.6-2,2.7-3.3c-0.8,0.1-1.1,0.1-1.4,0.2
		c-9.6,2.8-19.1,5.6-28.7,8.5c-2.7,0.8-5.4,1.7-8,2.6c-2.4,0.7-5.1-0.5-5.7-2.8c-0.2-0.6,0.8-1.9,1.5-2.3c3.8-1.8,7.7-3.2,11.4-5.1
		c9.8-5.1,19.6-10.3,29.3-15.5c3.1-1.7,6.2-3.5,9.3-5.1c12.9-6.9,24.7-15.5,36.4-24.3c10.6-8,21.2-16,31.8-24
		c2.3-1.7,5.9-4.7,8.1-6.7c7.8-7.1,15.4-14.4,23.4-21.3c5.1-4.5,10.6-8.5,15.8-12.9c2.8-2.3,5.3-4.9,8.1-7.3
		c3.4-2.9,6.7-5.8,10.3-8.4c7.4-5.4,14.8-10.8,22.4-16c3.5-2.4,24.2-16.1,30.2-19.6c7.4-4.4,15.1-8.3,22.7-12.3
		c1.6-0.8,3.4-1.3,5.1-2c5.1-2,9.2-5.3,12.6-9.6c2.6-3.2,5.7-5.8,8.5-8.8c6.8-7.4,18.9-17.2,32.6-26.1c6.8-4.4,11.8-7.6,20-10.4
		c10-3.4,18.7-5.9,34.7-5.9c5.8,0.5,17.8,2,25.1,8.5c2.6,2.3,5.4,4.4,8.4,6c3.4,1.9,7.1,3.4,10.8,4.8c4.9,1.9,9.9,3.5,14.8,5.4
		c7.3,2.9,14.6,5.9,21.9,9c1.8,0.8,3.4,2.1,5,3.3c2.3,1.7,2,4.2-0.7,5.3c-2.4,1-4.9,1.9-7.4,2.6c-6.7,1.9-13.5,3.6-20.2,5.6
		c-2.6,0.8-9.2,2.5-11.8,3.8c-4,2-7,5-10.2,7.6c-5.7,4.6-9.6,10.7-13.6,16.8c-6.1,9.3-9.9,19.5-13.3,30c-0.5,1.7-0.6,3.6-1,5.3
		c-1.5,6-3.1,11.9-4.6,17.9c-1.7,7.1-4.5,13.7-8.2,20.1c-2.5,4.2-3.7,9.1-6.1,13.3c-3.1,5.5-6.8,10.7-10.4,15.9
		c-7.4,10.5-16.2,19.7-25.6,28.5c-5.8,5.4-11.8,10.4-18,15.2c-3.2,2.5-15.3,10.2-16.6,10.7c-14.3,5.2-28.7,10.4-43.1,15.5
		c-3.9,1.4-7.2,2.8-9.3,6.8c-1.2,2.2-4,3.5-6,5.3c-0.6,0.6-1.5,1.9-1.2,2.2c0.5,0.8,1.6,1.6,2.4,1.7c6.5,0.5,13,0.6,19.4,1.3
		c3.2,0.3,6.4,0.9,9.6,1.8c7.9,2.1,15.8,4.5,23.6,6.9c1.9,0.6,3.5,1.8,5.3,2.6c1,0.4,2,1,3,1c7.2,0.5,14.6,0.4,21.7,1.4
		c6.4,0.9,12.8,2.7,18.4,6.2c0.6,0.3,1.2,1.4,1,1.9c-0.1,0.5-1.2,1.2-1.8,1.2c-3.4,0-6.9-0.1-10.3-0.3c-4.9-0.3-9.8-0.9-14.6-1.3
		c-0.3,0-0.7,0.1-1.1,0.1c-0.3,0.4-0.7,0.7-1,1.1c0.8,0.3,1.8,0.5,2.4,1c3.5,2.8,6.9,5.6,10.2,8.6c0.8,0.7,0.9,2.2,1.3,3.4
		c-1.2,0.2-2.7,0.8-3.7,0.4c-6.7-2.7-13.4-5.2-19.7-8.5c-4.5-2.4-8.9-3.2-13.8-2.4c-8.9,1.3-17.1,3-26,4.5c-3,0.5-6.6,1.1-9.5,1.9
		c-1.4,0.4-3,0.6-4.4,0.8c-0.2-0.3-0.3-0.6-0.5-0.9c0.7-0.6,1.3-1.4,2-1.8c8-4,16-7.9,23.9-11.8c0.6-0.3,1.1-0.7,2.1-1.3
		c-0.9-0.4-1.4-0.6-1.8-0.8c-12-3.4-24.3-5.3-36.6-6.5c-4.2-0.4-8.5-0.7-12.7-1.2c-1-0.1-2-0.3-2.9-0.6c-3.5-1-4.4-2.9-3.1-6.4
		c0.6-1.5,1.4-3.7,0.8-4.6c-1.5-2.1-3.4-4-6.7-3.7c-7.8,0.8-15.7,1.3-23.6,2.1c-1,0.1-2.1,1.3-2.8,2.2c-3.7,5-7.4,10.1-11.1,15.2
		c-0.5,0.7-1.2,1.6-2,1.8c-4.7,1.7-4.8,6.1-6.1,9.8c-0.6,1.7,0,2.9,2.2,3.1c1.2,0.1,2.5,0.9,3.4,1.8c7.5,7.2,14.8,14.4,22.2,21.6
		c0.4,0.4,1,0.8,1.6,0.9c7.5,0.8,15,1.3,22.4,2.5c8.3,1.3,16.5,3.3,24.7,5.1c1.6,0.4,4.4,0.4,3.8,2.9c-0.5,2.4-2.8,0.9-4.4,0.8
		c-9.6-0.6-19.2-1.2-28.7-1.8c-0.4,0-1.2,0.4-1.3,0.7c0,0.5,0.2,1.3,0.6,1.6c1,0.6,2.2,1,3.1,1.6c0.6,0.4,1.4,1.2,1.3,1.7
		c-0.1,0.6-1,1.4-1.7,1.5c-1.8,0.1-3.6,0-5.4-0.2c-2.4-0.3-4.8-0.8-7.2-1.1c-4-0.6-8-1.2-12-1.7c-1.6-0.2-3.1-0.1-4.6,0.3
		c-3.3,0.9-6.6,2.1-9.9,2.9c-6.6,1.6-13.2,3.1-19.8,4.6c-0.7,0.2-1.4,0-2.7,0c8.6-8.2,19.8-11,29.3-17.1c-3.2-4.3-6.8-7.8-11.1-10.8
		c-5.7-3.9-11.4-7.7-16.9-11.8c-2.5-1.8-3.2-5.2-2.2-8.1c0.6-1.6,1-3.3,1.6-4.9c1.1-2.5,1.2-4.2-1.1-6.6c-1.4-1.4-1-4.9-0.7-7.4
		c0.2-2.5,1.3-4.9,1.9-7.4c0.3-1.2,0.3-2.4,0.6-4.1c-1.9,0.2-2.8,0.3-4.1,0.5c-2.4,0.4-4.9,0.8-7.3,1c-7.9,0.9-15.8,1.5-23.7,2.2
		c-0.4,0-0.7,0.2-1.1,0.2c-6.9-0.9-13.6,1.1-20.4,1.3c-11.2,0.4-22.3,1.1-33.5,1.9c-9.1,0.6-18.3,1.5-27.4,2.4
		c-5.4,0.5-10.3,2.4-15.1,5c-10.3,5.6-21.4,9.9-31,16.5c-8.3,5.7-16.9,10.8-25.5,16c-3,1.8-6,3.7-9,5.5c-3.4,2-7.2,2.4-10.9,2.8
		c-0.3-2.3-0.5-4.1-0.8-6.3c-1.4,0.5-2.5,0.8-3.5,1.2c-4.9,1.9-9.8,3.9-14.8,5.6c-3.5,1.2-7,1.6-10-1.8c-1.3-1.5-3.1-1.6-5.1-0.4
		c-1.9,1.2-4.3,2.8-6.6,0.3c-0.2-0.2-0.6-0.4-0.6-0.5c0.5-3.8-1.8-2.4-3.7-2.2c-2.3,0.1-4.7-0.1-7-0.4c-0.6-0.1-1.2-1.2-1.3-1.9
		c0-0.2-2.8-0.3-4.1-0.4c-1-0.1-0.7-0.3-0.4-0.4l4.2-1.5l-3.4-0.4c-0.3,0-0.4-0.5-0.2-0.6c0.3-0.2,2-1.2,1.3-1.4
		c-0.9-0.2-2.8,0.4-4.9,0.9c-0.1-0.4-0.2-0.7-0.3-1.1c2-0.7,4.1-1.1,5.9-2c3.4-1.7,6.7-3.6,10.1-5.3c1.2-0.6,2.6-0.8,3.8-1.4
		c6.1-3,12.2-6,18.3-9c8.8-4.2,76.5-33.4,89.5-38.8c5.4-2.2,11.2-3.3,16.9-4.7c0.8-0.2,2.5-1,2.5-0.6L161.2,352.7z M350.3,372.9
		c-0.9,2.7-1.3,3.3-1.5,4.8c-0.5,2.7,0.7,3.6,3.3,3.5c10.8-0.1,20.5,0.8,30.6,2.3c8.2,1.2,30.1,7.4,30.2,8.5
		c0.3,2.1-2.1,2.2-3.8,2.7c-2.1,0.6-11.2,3.7-13.8,6.5c2.7-0.5,13.6-3,15.9-3.7c8.1-2.5,15.3-0.6,22.3,3.7c2,1.2,4.2,2.1,6.2,3.1
		c0.2-0.2,0.3-0.5,0.5-0.7c-1.4-1.2-2.9-2.5-4.3-3.7c-0.7-0.6-1.4-1.2-2-1.8c-1.3-1.5-1.1-2.9,1-3.1c3.9-0.3,8.1,0.1,12,0.4
		c4.2,0.3,9.6,0.5,12.1,0.5c-3.9-2.3-13.8-3.5-17.5-3.8c-6.5-0.4-13.1-0.2-19.6-0.7c-2.7-0.2-5.3-1.6-8-2.5
		c-8.3-2.8-16.6-5.9-25.1-8.3c-3.9-1.1-8.3-0.7-12.4-1c-3.5-0.2-7.1-0.3-10.6-0.7c-1.7-0.2-3.4-0.9-5-1c-1.3,0-4.6-0.3-5.3-0.8
		c-0.9-0.7,0.3-3,1.3-4.2H350.3z M524.1,145.7c4.9,2.6,9.3,4.9,13.7,7.2c2.9,1.5,5.9,2.7,8.5,4.5c1.4,1,2.2,0.9,3.6,0.4
		c7.5-2.6,15.1-5.3,22.7-7.6c2.8-0.9,5.4-1.3,8.3-1.8c0.8-0.1,2.3-0.5,2.5-1.2c0.2-0.5-0.5-1.7-1.1-2.1c-2.5-1.7-5-3.6-7.8-4.6
		c-7.7-2.9-19.1-6.3-26.6-8.7c-4.3-1.4-8.1-1.2-10.8,2.9c-0.1,0.2-0.5,0.3-0.7,0.5C532.5,138.6,528.4,142,524.1,145.7z M318.6,437.2
		c2.9,0.4,8.9,1.4,12.1,1.9c-1.1-1.2-4.8-2.8-4.7-3.9c0.1-1.2,2.7-1.4,3.4-1.5c1.2-0.2,3.6-0.1,4.8-0.3c0-0.2,14.6,1.2,13.8-0.1
		c-0.8-1.2-15.9-2.4-19-2.6c-0.6,0-5.2,0-7.9-1.3c-1.2-0.6-16.5-14.6-25.7-22.9c-0.7-0.6-1.6-1.5-2.4-1.6c-2.5-0.3-2.4-1.6-1.8-3.4
		c0.8-2.4,1.4-4.8,2.3-7.9c-2.6,0.3-6-0.1-6.2,0.7c-1.3,3.7-1.8,7.6-2.5,11.5c0,0.2,0.2,0.5,0.4,0.7c1.8,1.6,3.5,3.4,5.5,4.7
		c5.3,3.7,11.1,6.8,16.1,10.9c4.7,3.9,7.6,7.4,8.9,10.3c0.4,1-2.8,2.8-3.3,3c-1.7,0.5-6.9,2.9-12.2,6.9c3.2-0.8,13.1-4.3,15.9-5
		C317.9,436.9,317.9,437.1,318.6,437.2z"/>
	<path d="M489.5,133.7c-0.1-5.7,5.2-9.2,10.7-6.8c2.1,1,3.3,1.8,4.6,3.7c1,1.5,0.7,5.6-0.8,6.8c-2.6,2-6,2.9-9.6,2.2
		C491,138.9,489.5,137.5,489.5,133.7z"/>
</g>
<g id="Layer_6">
	<path id="Neatline" class="st9" d="M-1.5,580.3 M632.3,27.2 M539.8,175.5c-4,5.2-8.1,9.9-11.4,15.1c-5,8-6.8,17.3-9.5,26.2
		c-2,6.8-3,13.8-5.1,20.6c-7.8,24.6-21.4,46-36.8,66.3c-5.4,7.1-11.4,13.7-17.5,20.1c-4.4,4.6-9.1,9-14.3,12.5
		c-7.1,4.7-14.8,8.6-22.3,12.6c-14.6,7.8-29.8,13.8-46.3,15.8c-3.4,0.4-4.8,2.4-6.2,5.4c1.7,0.1,3.2,0.1,4.6,0.4
		c7.7,1.2,15.5,2,23,4c8.5,2.2,16.8,5.3,24.9,8.5c4.5,1.8,8.9,2.5,13.7,2.2c2.3-0.1,4.8,0.1,7,0.6c8.6,2,18,1.2,25.2,7.6
		c1.1,1,2.4,2.8,2.3,4.1c-0.1,1.1-2,2.9-3.2,3c-4.3,0.3-8.6,0-12.9-0.1c-2.6-0.1-5.2-0.3-8.6-0.6c2.4,1.8,4,3.4,5.9,4.4
		c3,1.7,4.5,3.6,3.2,7.4c-1,3-2,4.1-5.1,3.1c-2.9-1-5.9-1.9-8.7-3c-7.3-2.7-14.6-5.5-21.9-8.2c-0.8-0.3-1.8-0.5-2.6-0.4
		c-11.7,2-23.4,4-35.1,6c-3.4,0.6-6.8,1-10.3,1.3c-2.2,0.2-3.6-0.8-4-2.8c8.4-4.8,16.6-9.5,25.2-14.3c-0.7-0.3-1-0.5-1.3-0.5
		c-6.1-1.4-12.2-2.9-18.4-4c-5.6-1-11.3-1.4-16.9-2.3c-4.1-0.6-8.2-1.4-12.2-2.6c-3.1-1-3.8-3.2-2.8-6.3c0.3-0.9,0.5-1.8,0.8-2.7
		c-8,0.5-15.7,1-23.4,1.3c-1.8,0.1-3.1,0.3-4,2c-3.1,6-8,10.3-13.4,14c-0.4,0.3-0.7,0.6-1,0.9c-2.5,2.4-2.5,6,0.1,8.3
		c2,1.8,4.1,3.6,6.1,5.4c4.9,4.2,9.9,8.2,14.7,12.6c2.1,2,4,4.2,7,4.8c1.5,0.3,3,0.5,4.5,0.7c12.2,1.8,24.5,3.4,36.6,5.5
		c2.7,0.5,5.3,2.1,7.7,3.6c0.7,0.5,1,2.5,0.7,3.5c-1.1,3.3-2.6,4.1-6.8,3.8c-6.3-0.4-12.7-0.7-19-1.2c-1.9-0.2-3,0.5-3.2,2.3
		c-0.4,2.8-2.2,3.8-4.8,3.5c-8-0.9-16-1.9-24-2.8c-1.2-0.1-2.6-0.2-3.7,0.1c-10.6,2.5-21.2,5.1-31.7,7.7c-1.1,0.3-2.5,0.7-3.5,0.3
		c-1.4-0.5-3.2-1.3-3.8-2.4c-0.4-0.7,1.1-2.5,1.9-3.6c0.4-0.6,1.2-1.1,2-1.4c5.6-2.9,11.3-5.7,17-8.6c2.7-1.4,5.4-2.8,8.3-4.3
		c-1.2-1.1-2.2-2.4-3.4-3.2c-8.1-5.5-16.2-11-24.5-16.4c-2.9-1.8-3.8-2.9-2.9-6.4c0.8-3.4,2.1-6.6,2.8-10c0.3-1.3,0.1-3.3-0.7-4.2
		c-2.6-2.9-2.4-4.4-1.2-8.5c0.3-0.7,0.5-2.3,0.8-4c-2.9,0.6-80.4,5.7-87.8,6.2c-9.7,0.7-13.6,1.1-26.9,3.2
		c-2.7,0.4-7.6,2.7-10.1,3.9c-3,1.4-5.6,3.6-8.6,4.7c-10.3,4-19.4,10.1-28.4,16.4c-7.3,5.1-15,9.5-23.4,12.7
		c-5.6,2.1-10.9,4.8-16.4,7.2l-7.7,4.3H40.5L3.9,417.4L3,406.8c0,0,20-10.3,51.1-24.1c23.2-9.3,45.9-18.4,69-27.6
		c-3.7-5-3.1-7.8,1.8-10.9c0.5-0.3,0.9-0.6,1.4-0.9c15-8.1,30-16.2,45.1-24.3c4.6-2.4,9.5-4.4,13.7-7.2
		c12.3-8.4,25.3-15.7,36.6-25.5c14.1-12.2,29-23.3,42.4-36.4c15-14.6,30.9-28.1,47.7-40.5c3.2-2.4,6.6-4.5,9.7-7.1
		c18.9-16.3,40-29.2,62.2-40.5c1.9-0.9,3.9-1.5,5.8-2.4c4.7-2.3,9.8-3.9,13.6-7.9c6.3-6.6,12.5-13.1,19-19.5
		c8.9-8.9,19.2-15.8,30.4-21.3c7.1-3.5,15.3-7.3,27.7-9.6c40.8-7.3,43.4,0.7,66.5,17.9s71.1,23.6,55.1,29.9
		c-20.8,8.3-43.2,14.7-43.2,14.7C550.1,167.8,539.8,175.5,539.8,175.5z"/>
	<path id="Neatline_1_" class="st10" d="M-1.5,580.3 M632.3,27.2 M539.8,175.5c-4,5.2-8.1,9.9-11.4,15.1c-5,8-6.8,17.3-9.5,26.2
		c-2,6.8-3,13.8-5.1,20.6c-7.8,24.6-21.4,46-36.8,66.3c-5.4,7.1-11.4,13.7-17.5,20.1c-4.4,4.6-9.1,9-14.3,12.5
		c-7.1,4.7-14.8,8.6-22.3,12.6c-14.6,7.8-29.8,13.8-46.3,15.8c-3.4,0.4-4.8,2.4-6.2,5.4c1.7,0.1,3.2,0.1,4.6,0.4
		c7.7,1.2,15.5,2,23,4c8.5,2.2,16.8,5.3,24.9,8.5c4.5,1.8,8.9,2.5,13.7,2.2c2.3-0.1,4.8,0.1,7,0.6c8.6,2,18,1.2,25.2,7.6
		c1.1,1,2.4,2.8,2.3,4.1c-0.1,1.1-2,2.9-3.2,3c-4.3,0.3-8.6,0-12.9-0.1c-2.6-0.1-5.2-0.3-8.6-0.6c2.4,1.8,4,3.4,5.9,4.4
		c3,1.7,4.5,3.6,3.2,7.4c-1,3-2,4.1-5.1,3.1c-2.9-1-5.9-1.9-8.7-3c-7.3-2.7-14.6-5.5-21.9-8.2c-0.8-0.3-1.8-0.5-2.6-0.4
		c-11.7,2-23.4,4-35.1,6c-3.4,0.6-6.8,1-10.3,1.3c-2.2,0.2-3.6-0.8-4-2.8c8.4-4.8,16.6-9.5,25.2-14.3c-0.7-0.3-1-0.5-1.3-0.5
		c-6.1-1.4-12.2-2.9-18.4-4c-5.6-1-11.3-1.4-16.9-2.3c-4.1-0.6-8.2-1.4-12.2-2.6c-3.1-1-3.8-3.2-2.8-6.3c0.3-0.9,0.5-1.8,0.8-2.7
		c-8,0.5-15.7,1-23.4,1.3c-1.8,0.1-3.1,0.3-4,2c-3.1,6-8,10.3-13.4,14c-0.4,0.3-0.7,0.6-1,0.9c-2.5,2.4-2.5,6,0.1,8.3
		c2,1.8,4.1,3.6,6.1,5.4c4.9,4.2,9.9,8.2,14.7,12.6c2.1,2,4,4.2,7,4.8c1.5,0.3,3,0.5,4.5,0.7c12.2,1.8,24.5,3.4,36.6,5.5
		c2.7,0.5,5.3,2.1,7.7,3.6c0.7,0.5,1,2.5,0.7,3.5c-1.1,3.3-2.6,4.1-6.8,3.8c-6.3-0.4-12.7-0.7-19-1.2c-1.9-0.2-3,0.5-3.2,2.3
		c-0.4,2.8-2.2,3.8-4.8,3.5c-8-0.9-16-1.9-24-2.8c-1.2-0.1-2.6-0.2-3.7,0.1c-10.6,2.5-21.2,5.1-31.7,7.7c-1.1,0.3-2.5,0.7-3.5,0.3
		c-1.4-0.5-3.2-1.3-3.8-2.4c-0.4-0.7,1.1-2.5,1.9-3.6c0.4-0.6,1.2-1.1,2-1.4c5.6-2.9,11.3-5.7,17-8.6c2.7-1.4,5.4-2.8,8.3-4.3
		c-1.2-1.1-2.2-2.4-3.4-3.2c-8.1-5.5-16.2-11-24.5-16.4c-2.9-1.8-3.8-2.9-2.9-6.4c0.8-3.4,2.1-6.6,2.8-10c0.3-1.3,0.1-3.3-0.7-4.2
		c-2.6-2.9-2.4-4.4-1.2-8.5c0.3-0.7,0.5-2.3,0.8-4c-2.9,0.6-80.4,5.7-87.8,6.2c-9.7,0.7-13.6,1.1-26.9,3.2
		c-2.7,0.4-7.6,2.7-10.1,3.9c-3,1.4-5.6,3.6-8.6,4.7c-10.3,4-19.4,10.1-28.4,16.4c-7.3,5.1-15,9.5-23.4,12.7
		c-5.6,2.1-10.9,4.8-16.4,7.2l-7.7,4.3H40.5l-52-25.1L1,406.8c0,0,22-10.3,53.1-24.1c23.2-9.3,45.9-18.4,69-27.6
		c-3.7-5-3.1-7.8,1.8-10.9c0.5-0.3,0.9-0.6,1.4-0.9c15-8.1,30-16.2,45.1-24.3c4.6-2.4,9.5-4.4,13.7-7.2
		c12.3-8.4,25.3-15.7,36.6-25.5c14.1-12.2,29-23.3,42.4-36.4c15-14.6,30.9-28.1,47.7-40.5c3.2-2.4,6.6-4.5,9.7-7.1
		c18.9-16.3,40-29.2,62.2-40.5c1.9-0.9,3.9-1.5,5.8-2.4c4.7-2.3,9.8-3.9,13.6-7.9c6.3-6.6,12.5-13.1,19-19.5
		c8.9-8.9,19.2-15.8,30.4-21.3c7.1-3.5,15.3-7.3,27.7-9.6c40.8-7.3,43.4,0.7,66.5,17.9s71.1,23.6,55.1,29.9
		c-20.8,8.3-43.2,14.7-43.2,14.7C550.1,167.8,539.8,175.5,539.8,175.5z"/>
	<g>
		<defs>
			<path id="SVGID_5_" d="M175.9,374.4 M161.2,352.7c0.3-0.8,10.9-6.3,10.2-6.5c0.8-1,1.6-2,2.7-3.3c-0.8,0.1-1.1,0.1-1.4,0.2
				c-9.6,2.8-19.1,5.6-28.7,8.5c-2.7,0.8-5.4,1.7-8,2.6c-2.4,0.7-5.1-0.5-5.7-2.8c-0.2-0.6,0.8-1.9,1.5-2.3
				c3.8-1.8,7.7-3.2,11.4-5.1c9.8-5.1,19.6-10.3,29.3-15.5c3.1-1.7,6.2-3.5,9.3-5.1c12.9-6.9,24.7-15.5,36.4-24.3
				c10.6-8,21.2-16,31.8-24c2.3-1.7,5.9-4.7,8.1-6.7c7.8-7.1,15.4-14.4,23.4-21.3c5.1-4.5,10.6-8.5,15.8-12.9
				c2.8-2.3,5.3-4.9,8.1-7.3c3.4-2.9,6.7-5.8,10.3-8.4c7.4-5.4,14.8-10.8,22.4-16c3.5-2.4,24.2-16.1,30.2-19.6
				c7.4-4.4,15.1-8.3,22.7-12.3c1.6-0.8,3.4-1.3,5.1-2c5.1-2,9.2-5.3,12.6-9.6c2.6-3.2,5.7-5.8,8.5-8.8c6.8-7.4,19.2-16.7,32.6-26.1
				c19-13.2,38.8-15.3,54.7-15.3c9,0,20.9,2.5,33.5,13.5c3,2.6,7.1,3.4,10.8,4.8c4.9,1.9,9.9,3.5,14.8,5.4c7.3,2.9,14.6,5.9,21.9,9
				c1.8,0.8,3.4,2.1,5,3.3c2.3,1.7,2,4.2-0.7,5.3c-2.4,1-4.9,1.9-7.4,2.6c-6.7,1.9-13.5,3.6-20.2,5.6c-2.6,0.8-9.2,2.5-11.8,3.8
				c-4,2-7,5-10.2,7.6c-5.7,4.6-9.6,10.7-13.6,16.8c-6.1,9.3-9.9,19.5-13.3,30c-0.5,1.7-0.6,3.6-1,5.3c-1.5,6-3.1,11.9-4.6,17.9
				c-1.7,7.1-4.9,13.5-8.2,20.1c-3.8,7.5-12.9,24-16.6,29.2c-7.4,10.5-16.2,19.7-25.6,28.5c-5.8,5.4-11.8,10.4-18,15.2
				c-3.2,2.5-15.3,10.2-16.6,10.7c-14.3,5.2-28.7,10.4-43.1,15.5c-3.9,1.4-7.2,2.8-9.3,6.8c-1.2,2.2-4,3.5-6,5.3
				c-0.6,0.6-1.5,1.9-1.2,2.2c0.5,0.8,1.6,1.6,2.4,1.7c6.5,0.5,13,0.6,19.4,1.3c3.2,0.3,6.4,0.9,9.6,1.8c7.9,2.1,15.8,4.5,23.6,6.9
				c1.9,0.6,3.5,1.8,5.3,2.6c1,0.4,2,1,3,1c7.2,0.5,14.6,0.4,21.7,1.4c6.4,0.9,12.8,2.7,18.4,6.2c0.6,0.3,1.2,1.4,1,1.9
				c-0.1,0.5-1.2,1.2-1.8,1.2c-3.4,0-6.9-0.1-10.3-0.3c-4.9-0.3-9.8-0.9-14.6-1.3c-0.3,0-0.7,0.1-1.1,0.1c-0.3,0.4-0.7,0.7-1,1.1
				c0.8,0.3,1.8,0.5,2.4,1c3.5,2.8,6.9,5.6,10.2,8.6c0.8,0.7,0.9,2.2,1.3,3.4c-1.2,0.2-2.7,0.8-3.7,0.4c-6.7-2.7-13.4-5.2-19.7-8.5
				c-4.5-2.4-8.9-3.2-13.8-2.4c-8.9,1.3-17.1,3-26,4.5c-3,0.5-6.6,1.1-9.5,1.9c-1.4,0.4-3,0.6-4.4,0.8c-0.2-0.3-0.3-0.6-0.5-0.9
				c0.7-0.6,1.3-1.4,2-1.8c8-4,16-7.9,23.9-11.8c0.6-0.3,1.1-0.7,2.1-1.3c-0.9-0.4-1.4-0.6-1.8-0.8c-12-3.4-24.3-5.3-36.6-6.5
				c-4.2-0.4-8.5-0.7-12.7-1.2c-1-0.1-2-0.3-2.9-0.6c-3.5-1-4.4-2.9-3.1-6.4c0.6-1.5,1.4-3.7,0.8-4.6c-1.5-2.1-3.4-4-6.7-3.7
				c-7.8,0.8-15.7,1.3-23.6,2.1c-1,0.1-2.1,1.3-2.8,2.2c-3.7,5-7.4,10.1-11.1,15.2c-0.5,0.7-1.2,1.6-2,1.8c-4.7,1.7-4.8,6.1-6.1,9.8
				c-0.6,1.7,0,2.9,2.2,3.1c1.2,0.1,2.5,0.9,3.4,1.8c7.5,7.2,14.8,14.4,22.2,21.6c0.4,0.4,1,0.8,1.6,0.9c7.5,0.8,15,1.3,22.4,2.5
				c8.3,1.3,16.5,3.3,24.7,5.1c1.6,0.4,4.4,0.4,3.8,2.9c-0.5,2.4-2.8,0.9-4.4,0.8c-9.6-0.6-19.2-1.2-28.7-1.8
				c-0.4,0-1.2,0.4-1.3,0.7c0,0.5,0.2,1.3,0.6,1.6c1,0.6,2.2,1,3.1,1.6c0.6,0.4,1.4,1.2,1.3,1.7c-0.1,0.6-1,1.4-1.7,1.5
				c-1.8,0.1-3.6,0-5.4-0.2c-2.4-0.3-4.8-0.8-7.2-1.1c-4-0.6-8-1.2-12-1.7c-1.6-0.2-3.1-0.1-4.6,0.3c-3.3,0.9-6.6,2.1-9.9,2.9
				c-6.6,1.6-13.2,3.1-19.8,4.6c-0.7,0.2-1.4,0-2.7,0c8.6-8.2,19.8-11,29.3-17.1c-3.2-4.3-6.8-7.8-11.1-10.8
				c-5.7-3.9-11.4-7.7-16.9-11.8c-2.5-1.8-3.2-5.2-2.2-8.1c0.6-1.6,1-3.3,1.6-4.9c1.1-2.5,1.2-4.2-1.1-6.6c-1.4-1.4-1-4.9-0.7-7.4
				c0.2-2.5,1.3-4.9,1.9-7.4c0.3-1.2,0.3-2.4,0.6-4.1c-1.9,0.2-2.8,0.3-4.1,0.5c-2.4,0.4-4.9,0.8-7.3,1c-7.9,0.9-15.8,1.5-23.7,2.2
				c-0.4,0-0.7,0.2-1.1,0.2c-6.9-0.9-13.6,1.1-20.4,1.3c-11.2,0.4-22.3,1.1-33.5,1.9c-9.1,0.6-18.3,1.5-27.4,2.4
				c-5.4,0.5-10.3,2.4-15.1,5c-10.3,5.6-21.4,9.9-31,16.5c-8.3,5.7-16.9,10.8-25.5,16c-3,1.8-6,3.7-9,5.5c-3.4,2-7.2,2.4-10.9,2.8
				c-0.3-2.3-0.5-4.1-0.8-6.3c-1.4,0.5-2.5,0.8-3.5,1.2c-4.9,1.9-9.8,3.9-14.8,5.6c-3.5,1.2-7,1.6-10-1.8c-1.3-1.5-3.1-1.6-5.1-0.4
				c-1.9,1.2-4.3,2.8-6.6,0.3c-0.2-0.2-0.6-0.4-0.6-0.5c0.5-3.8-1.8-2.4-3.7-2.2c-2.3,0.1-4.7-0.1-7-0.4c-0.6-0.1-1.2-1.2-1.3-1.9
				c0-0.2-2.8-0.3-4.1-0.4c-1-0.1-0.7-0.3-0.4-0.4l4.2-1.5l-3.4-0.4c-0.3,0-0.4-0.5-0.2-0.6c0.3-0.2,2-1.2,1.3-1.4
				c-0.9-0.2-2.8,0.4-4.9,0.9c-0.1-0.4-0.2-0.7-0.3-1.1c2-0.7,4.1-1.1,5.9-2c3.4-1.7,6.7-3.6,10.1-5.3c1.2-0.6,2.6-0.8,3.8-1.4
				c6.1-3,12.2-6,18.3-9c8.8-4.2,76.5-33.4,89.5-38.8c5.4-2.2,11.2-3.3,16.9-4.7c0.8-0.2,2.5-1,2.5-0.6L161.2,352.7z M350.3,372.9
				c-0.9,2.7-1.3,3.3-1.5,4.8c-0.5,2.7,0.7,3.6,3.3,3.5c10.8-0.1,20.5,0.8,30.6,2.3c8.2,1.2,30.1,7.4,30.2,8.5
				c0.3,2.1-2.1,2.2-3.8,2.7c-2.1,0.6-11.2,3.7-13.8,6.5c2.7-0.5,13.6-3,15.9-3.7c8.1-2.5,15.3-0.6,22.3,3.7c2,1.2,4.2,2.1,6.2,3.1
				c0.2-0.2,0.3-0.5,0.5-0.7c-1.4-1.2-2.9-2.5-4.3-3.7c-0.7-0.6-1.4-1.2-2-1.8c-1.3-1.5-1.1-2.9,1-3.1c3.9-0.3,8.1,0.1,12,0.4
				c4.2,0.3,9.6,0.5,12.1,0.5c-3.9-2.3-13.8-3.5-17.5-3.8c-6.5-0.4-13.1-0.2-19.6-0.7c-2.7-0.2-5.3-1.6-8-2.5
				c-8.3-2.8-16.6-5.9-25.1-8.3c-3.9-1.1-8.3-0.7-12.4-1c-3.5-0.2-7.1-0.3-10.6-0.7c-1.7-0.2-3.4-0.9-5-1c-1.3,0-4.6-0.3-5.3-0.8
				c-0.9-0.7,0.3-3,1.3-4.2H350.3z M524.1,145.7c4.9,2.6,9.3,4.9,13.7,7.2c2.9,1.5,5.9,2.7,8.5,4.5c1.4,1,2.2,0.9,3.6,0.4
				c7.5-2.6,15.1-5.3,22.7-7.6c2.8-0.9,5.4-1.3,8.3-1.8c0.8-0.1,2.3-0.5,2.5-1.2c0.2-0.5-0.5-1.7-1.1-2.1c-2.5-1.7-5-3.6-7.8-4.6
				c-7.7-2.9-19.1-6.3-26.6-8.7c-4.3-1.4-8.1-1.2-10.8,2.9c-0.1,0.2-0.5,0.3-0.7,0.5C532.5,138.6,528.4,142,524.1,145.7z
				 M318.6,437.2c2.9,0.4,8.9,1.4,12.1,1.9c-1.1-1.2-4.8-2.8-4.7-3.9c0.1-1.2,2.7-1.4,3.4-1.5c1.2-0.2,3.6-0.1,4.8-0.3
				c0-0.2,14.6,1.2,13.8-0.1c-0.8-1.2-15.9-2.4-19-2.6c-0.6,0-5.2,0-7.9-1.3c-1.2-0.6-16.5-14.6-25.7-22.9c-0.7-0.6-1.6-1.5-2.4-1.6
				c-2.5-0.3-2.4-1.6-1.8-3.4c0.8-2.4,1.4-4.8,2.3-7.9c-2.6,0.3-6-0.1-6.2,0.7c-1.3,3.7-1.8,7.6-2.5,11.5c0,0.2,0.2,0.5,0.4,0.7
				c1.8,1.6,3.5,3.4,5.5,4.7c5.3,3.7,11.1,6.8,16.1,10.9c4.7,3.9,7.6,7.4,8.9,10.3c0.4,1-2.8,2.8-3.3,3c-1.7,0.5-6.9,2.9-12.2,6.9
				c3.2-0.8,13.1-4.3,15.9-5C317.9,436.9,317.9,437.1,318.6,437.2z"/>
		</defs>
		<clipPath id="SVGID_6_">
			<use xlink:href="#SVGID_5_"  style="overflow:visible;"/>
		</clipPath>
		<g class="st12">
			
				<image style="overflow:visible;" width="595" height="470" xlink:href="74EFA82A28337466.png"  transform="matrix(1 0 0 1 -30.2756 102.1789)">
			</image>
		</g>
		<path class="st11" d="M155.1,355.5l4.1,0.3l23.4-9.3c0,0-6.4,6.1-8,8.1c-1.6,2.1-0.3,2.9,3.6,2.1c3.9-0.8,34.3-12.6,36.1-13.5
			c1.7-0.8,1.7-0.1,1.5,0.7c-0.3,0.8-0.7,2.7-2,5c-1.3,2.3,0.5,2.7,2.1,1.8c1.6-1,111-50.5,132.7-58.6c21.7-8,32.8-8.5,36.1-10.9
			c3.3-2.4,35.9-59.1,46.1-68.8c0,0-4.1,4.2-8.2,9c-2.3,2.7-36,54.3-37.4,55.1c-1.4,0.7-12.2,4.9-24.5,8.3
			c-5.2,1.4-56.5,21.2-64,24.5c-7.5,3.3-45.5,18.9-58.3,26.2c-12.7,7.3-13.2,5.9-13.2,5.9l2.6-7.8l-2.4-0.2L195,346.2l-0.2-3.5
			l9-7.1l-4.5-1.2l-22.2,8.7l-8.5,2.8L155.1,355.5z"/>
		<path class="st12" d="M175.9,374.4 M113.8,399.4c0.8-0.6,1.7-1.3,2.7-1.8c4-2.1,8-4.3,12.1-6.3c10.9-5.5,22.3-9.6,33.3-14.7
			l8.8-0.1c0.2,0.2,12.5-0.4,12.9-0.4c10.3-0.7,20.6-1.4,30.8-2.3c9.3-0.8,18.6-2.2,27.9-3c9-0.8,18.1-1,27.1-1.7
			c5-0.4,9.8-1.6,14.8-2.4c1-0.2,1.9-0.2,3.7-0.5c-0.8,5.6-1.4,11-2.3,16.2c-0.6,3.5,0.7,7.1,4,8c1.5,0.4,3.7-0.1,5-1
			c5.4-3.9,9.9-8.7,13-14.8c1.2-2.4,2.9-4.7,4.9-6.4c1.6-1.3,4-2,6.2-2.3c7.4-1,14.8-1.7,22.2-2.7c7.1-0.9,14.2-1.9,21.4-2.2
			c-5.7,1.6-11.4,3.2-17.2,4.8c1.6,2.9,4.1,4.9,6,5c0,0,5.9,0.6,7.3,0.2c5.3-1.4,8-6.2,11.1-10.8c0.6-0.9,1.2-1.8,1.7-2.7
			c1-1.8,2.1-3.2,5-2.7c2.2,0.3,4.7-1.1,7.1-1.7c2.9-0.7,5.9-0.9,8.7-2c15.2-5.8,30.5-11.8,43-22.3c18.2-15.3,36.4-30.7,49.3-51.2
			c3.9-6.3,7.1-12.8,10.3-19.4c4.2-8.6,7-17.5,9.8-26.5c0.9-2.9,1.4-5.8,2.2-8.7c1.3-4.7,2.3-9.5,3.9-14.1
			c4.1-11.9,10.5-22.8,17.6-33c3.7-5.3,8.4-10,12.7-14.9c1.6-1.8,1.4-2.6-0.8-3.8c-6.7-3.5-13.2-7.3-20-11.1
			c3.3-2.8,6.3-5.3,9.3-7.9c2.1-1.8,4.1-3.6,6.1-5.5c2.5-2.4,1.6-3.5-0.4-6.2c-3-4.1-7.1-6.6-11.7-8.8c-3.2-1.5-8.9-3.6-16.2-3.8
			c-15.5-0.5-27.7,0.8-38.9,6.7c-5.9,3.1-11.4,6.7-17.1,10c-10.1,6-18.6,13.8-26.8,22.2c-5.8,5.9-11.6,11.9-17.6,17.8
			c-1.2,1.2-3,2.1-4.7,2.6c-8.3,2.1-39.1,19.7-42.7,21.7c-6,3.3-24,15.9-27.3,18.3c-4.2,3-11.5,8.9-18.9,15.1
			c-10.3,9-33.2,28.6-47.5,41.2c-9,8.6-20,14.4-29.3,22.5c-3.7,3.3-7.3,6.8-11.3,9.7c-4.7,3.5-9.8,6.6-14.7,9.8
			c-6.2,4-12.4,8-18.7,11.7c-10.1,6-20.4,11.8-30.6,17.8c-1.8,1-3.5,2.2-5.8,3.6c1,0,1.5,0.1,1.8,0c6.2-1.6,12.4-3.3,18.7-4.7
			c1.3-0.3,2.9,0.3,4.3,0.4c0.7,0,1.6,0,2.2-0.3c6.9-3.9,14.3-6.3,22.1-7.1c0.7-0.1,1.5,0.3,2.2,0.4c-0.3,0.7-0.4,1.6-0.9,2.1
			c-2.7,2.7-5.5,5.3-8.2,8c0.2,0.3,0.2,0.3,0.4,0.6c1.4-0.6,2.8-1.1,4.3-1.7c8-3.3,16-6.6,24-9.7c1.2-0.5,2.7-0.2,4.1-0.2
			c-0.1,1.5-0.1,3.1-0.4,4.6c-0.2,0.8-0.8,1.5-1.7,2.9c1.6-0.7,2.4-1.1,3.3-1.6c11.5-5.9,22.8-12,34.5-17.6c7.1-3.4,14.7-5.7,22-8.7
			c8-3.3,15.8-7,23.7-10.4c10.6-4.5,21.2-9,32.1-13c9.7-3.5,19.7-6.3,29.6-9.3c3.2-1,6.5-1.5,9.7-2.5c1.1-0.4,2.1-1,2.8-2
			c2.5-3.4,4.9-6.9,7.2-10.4c6.5-10,12.7-20.1,19.3-30c4.7-7,9.8-13.7,15.1-20.2c2-2.5,5.3-4,7.9-6.1c1.3-1.1,2.5-2.4,4.1-3.9
			c0.4,3.1-1.3,4.5-3.1,5.4c-5.8,3.3-9.6,8.6-13.6,13.5c-4.2,5.2-7.8,10.9-11.6,16.4c-3.7,5.5-7.4,11-11,16.5c-4.6,7-9,14-13.7,20.9
			c-1,1.5-2.9,2.8-4.7,3.4c-3.3,1.2-6.8,1.8-10.2,2.9c-2,0.6-3.7,1.9-5.7,2.5c-7,2.2-14.2,3.9-21.1,6.4
			c-11.2,4.2-22.2,8.9-33.4,13.3c-6.1,2.4-12.3,4.7-18.4,7.2c-10.1,4.3-20.1,8.8-30.1,13.3c-12.4,5.6-24.6,11.4-37,17
			c-0.7,0.3-2.1,0.3-2.3-0.1c-0.4-0.7-0.6-1.9-0.2-2.7c0.8-1.7,2-3.2,3-4.8c-0.3-0.4-0.3-0.4-0.6-0.7c-2.6,1-5.3,2-7.9,3.1
			c-8.5,3.6-17,7.3-25.5,10.9c-1.2,0.5-2.4,1.2-3.7,1.7c-0.8,0.3-1.7,0.3-2.5,0.5c-0.2-0.3-0.4-0.7-0.6-1c5-4.3,9.9-8.6,14.9-12.8
			l-0.6-1.1c-1.1,0.2-2.4,0.1-3.4,0.5c-4.4,2-8.8,4.4-13.2,6.3c-3.6,1.6-7.4,2.8-11.1,4.2c-0.3-0.4-0.3-0.4-0.6-0.8
			c0.8-1,1.6-2,2.7-3.3c-0.8,0.1-1.1,0.1-1.4,0.2c-9.6,2.8-19.1,5.6-28.7,8.5c-2.7,0.8-5.4,1.7-8,2.6c-2.4,0.7-5.1-0.5-5.7-2.8
			c-0.2-0.6,0.8-1.9,1.5-2.3c3.8-1.8,7.7-3.2,11.4-5.1c9.8-5.1,19.6-10.3,29.3-15.5c3.1-1.7,6.2-3.5,9.3-5.1
			c12.9-6.9,24.7-15.5,36.4-24.3c10.6-8,21.2-16,31.8-24c2.3-1.7,5.9-4.7,8.1-6.7c7.8-7.1,15.4-14.4,23.4-21.3
			c5.1-4.5,10.6-8.5,15.8-12.9c2.8-2.3,5.3-4.9,8.1-7.3c3.4-2.9,6.7-5.8,10.3-8.4c7.4-5.4,14.8-10.8,22.4-16
			c3.5-2.4,24.2-16.1,30.2-19.6c7.4-4.4,15.1-8.3,22.7-12.3c1.6-0.8,3.4-1.3,5.1-2c5.1-2,9.2-5.3,12.6-9.6c2.6-3.2,5.7-5.8,8.5-8.8
			c6.8-7.4,18.9-17.2,32.6-26.1c6.8-4.4,12.5-7.1,20-11.4c7.4-4.2,18.7-4.9,34.7-4.9c5.8,0.5,18.7,1.7,26.8,7.2
			c3.9,2.6,7.3,3.3,9.7,5.7c2.8,2.8,4.1,4.9,7.8,6.4c4.9,1.9,9.9,3.5,14.8,5.4c7.3,2.9,14.6,5.9,21.9,9c1.8,0.8,3.4,2.1,5,3.3
			c2.3,1.7,2,4.2-0.7,5.3c-2.4,1-4.9,1.9-7.4,2.6c-6.7,1.9-13.5,3.6-20.2,5.6c-2.6,0.8-9.2,2.5-11.8,3.8c-4,2-7,5-10.2,7.6
			c-5.7,4.6-9.6,10.7-13.6,16.8c-6.1,9.3-9.9,19.5-13.3,30c-0.5,1.7-0.6,3.6-1,5.3c-1.5,6-3.1,11.9-4.6,17.9
			c-1.7,7.1-4.5,13.7-8.2,20.1c-2.5,4.2-3.7,9.1-6.1,13.3c-3.1,5.5-6.8,10.7-10.4,15.9c-7.4,10.5-16.2,19.7-25.6,28.5
			c-5.8,5.4-11.8,10.4-18,15.2c-3.2,2.5-15.3,10.2-16.6,10.7c-14.3,5.2-28.7,10.4-43.1,15.5c-3.9,1.4-7.2,2.8-9.3,6.8
			c-1.2,2.2-4,3.5-6,5.3c-0.6,0.6-1.5,1.9-1.2,2.2c0.5,0.8,1.6,1.6,2.4,1.7c6.5,0.5,13,0.6,19.4,1.3c3.2,0.3,6.4,0.9,9.6,1.8
			c7.9,2.1,15.8,4.5,23.6,6.9c1.9,0.6,3.5,1.8,5.3,2.6c1,0.4,2,1,3,1c7.2,0.5,14.6,0.4,21.7,1.4c6.4,0.9,12.8,2.7,18.4,6.2
			c0.6,0.3,1.2,1.4,1,1.9c-0.1,0.5-1.2,1.2-1.8,1.2c-3.4,0-6.9-0.1-10.3-0.3c-4.9-0.3-9.8-0.9-14.6-1.3c-0.3,0-0.7,0.1-1.1,0.1
			c-0.3,0.4-0.7,0.7-1,1.1c0.8,0.3,1.8,0.5,2.4,1c3.5,2.8,6.9,5.6,10.2,8.6c0.8,0.7,0.9,2.2,1.3,3.4c-1.2,0.2-2.7,0.8-3.7,0.4
			c-6.7-2.7-13.4-5.2-19.7-8.5c-4.5-2.4-8.9-3.2-13.8-2.4c-8.9,1.3-17.1,3-26,4.5c-3,0.5-6.6,1.1-9.5,1.9c-1.4,0.4-3,0.6-4.4,0.8
			c-0.2-0.3-0.3-0.6-0.5-0.9c0.7-0.6,1.3-1.4,2-1.8c8-4,16-7.9,23.9-11.8c0.6-0.3,1.1-0.7,2.1-1.3c-0.9-0.4-1.4-0.6-1.8-0.8
			c-12-3.4-24.3-5.3-36.6-6.5c-4.2-0.4-8.5-0.7-12.7-1.2c-1-0.1-2-0.3-2.9-0.6c-3.5-1-4.4-2.9-3.1-6.4c0.6-1.5,1.4-3.7,0.8-4.6
			c-1.5-2.1-3.4-4-6.7-3.7c-7.8,0.8-15.7,1.3-23.6,2.1c-1,0.1-2.1,1.3-2.8,2.2c-3.7,5-7.4,10.1-11.1,15.2c-0.5,0.7-1.2,1.6-2,1.8
			c-4.7,1.7-4.8,6.1-6.1,9.8c-0.6,1.7,0,2.9,2.2,3.1c1.2,0.1,2.5,0.9,3.4,1.8c7.5,7.2,14.8,14.4,22.2,21.6c0.4,0.4,1,0.8,1.6,0.9
			c7.5,0.8,15,1.3,22.4,2.5c8.3,1.3,16.5,3.3,24.7,5.1c1.6,0.4,4.4,0.4,3.8,2.9c-0.5,2.4-2.8,0.9-4.4,0.8
			c-9.6-0.6-19.2-1.2-28.7-1.8c-0.4,0-1.2,0.4-1.3,0.7c0,0.5,0.2,1.3,0.6,1.6c1,0.6,2.2,1,3.1,1.6c0.6,0.4,1.4,1.2,1.3,1.7
			c-0.1,0.6-1,1.4-1.7,1.5c-1.8,0.1-3.6,0-5.4-0.2c-2.4-0.3-4.8-0.8-7.2-1.1c-4-0.6-8-1.2-12-1.7c-1.6-0.2-3.1-0.1-4.6,0.3
			c-3.3,0.9-6.6,2.1-9.9,2.9c-6.6,1.6-13.2,3.1-19.8,4.6c-0.7,0.2-1.4,0-2.7,0c8.6-8.2,19.8-11,29.3-17.1
			c-3.2-4.3-6.8-7.8-11.1-10.8c-5.7-3.9-11.4-7.7-16.9-11.8c-2.5-1.8-3.2-5.2-2.2-8.1c0.6-1.6,1-3.3,1.6-4.9
			c1.1-2.5,1.2-4.2-1.1-6.6c-1.4-1.4-1-4.9-0.7-7.4c0.2-2.5,1.3-4.9,1.9-7.4c0.3-1.2,0.3-2.4,0.6-4.1c-1.9,0.2-2.8,0.3-4.1,0.5
			c-2.4,0.4-4.9,0.8-7.3,1c-7.9,0.9-15.8,1.5-23.7,2.2c-0.4,0-0.7,0.2-1.1,0.2c-6.9-0.9-13.6,1.1-20.4,1.3
			c-11.2,0.4-22.3,1.1-33.5,1.9c-9.1,0.6-18.3,1.5-27.4,2.4c-5.4,0.5-10.3,2.4-15.1,5c-10.3,5.6-21.4,9.9-31,16.5
			c-8.3,5.7-16.9,10.8-25.5,16c-3,1.8-6,3.7-9,5.5c-3.4,2-7.2,2.4-10.9,2.8c-0.3-2.3-0.5-4.1-0.8-6.3c-1.4,0.5-2.5,0.8-3.5,1.2
			c-4.9,1.9-9.8,3.9-14.8,5.6c-3.5,1.2-7,1.6-10-1.8c-1.3-1.5-3.1-1.6-5.1-0.4c-1.9,1.2-4.3,2.8-6.6,0.3c-0.2-0.2-0.6-0.4-0.6-0.5
			c0.5-3.8-1.8-2.4-3.7-2.2c-2.3,0.1-4.7-0.1-7-0.4c-0.6-0.1-1.2-1.2-1.3-1.9c0-0.2-2.8-0.3-4.1-0.4c-1-0.1-0.7-0.3-0.4-0.4l4.2-1.5
			l-3.4-0.4c-0.3,0-0.4-0.5-0.2-0.6c0.3-0.2,2-1.2,1.3-1.4c-0.9-0.2-2.8,0.4-4.9,0.9c-0.1-0.4-0.2-0.7-0.3-1.1c2-0.7,4.1-1.1,5.9-2
			c3.4-1.7,6.7-3.6,10.1-5.3c1.2-0.6,2.6-0.8,3.8-1.4c6.1-3,12.2-6,18.3-9c8.8-4.2,76.5-33.4,89.5-38.8c5.4-2.2,11.2-3.3,16.9-4.7
			c0.8-0.2,1.8,0.8,2.8,1.3c0,0.4,0,0.7,0,1.1c-4.2,1.9-8.4,3.7-12.5,5.7c-6,2.9-12,6-18.1,8.9c-4.6,2.2-9.1,4.5-13.9,6.3
			c-10,3.9-20.1,7.5-30,11.4c-9.6,3.9-19.1,7.9-28.6,12.2c-6.5,3-14.2,4.8-20.8,7.9c-4,1.9-7.9,2.1-11.4,4.7
			c-3.5,1.5-3.5,1.9-3.9,2.5l0.8,0.5l3.3,0.2l-4.4,1.7l2.7-0.2l21.6-7.9c1.9-0.2-19.3,8.1-17.3,8.5c4,0.8,6-0.5,8.5,1.8
			c0.5,0.4,1.8,0.5,2.4,0.1c4-2.3,7.8-4.9,11.9-7.1c6-3.3,12.2-6.4,18.3-9.5c0.5-0.3,1.4,0.3,2.2,0.4c-0.4,0.7-0.5,1.8-1.1,2.1
			c-4.9,2.8-10,5.2-14.8,8.1c-2.9,1.7-5.3,4.1-8,6.2c0.2,0.2,0.3,0.5,0.5,0.7c1.3-0.5,2.6-1,3.9-1.6c6.5-3.3,12.9-6.7,19.4-9.9
			c1.3-0.6,2.9-2,4.1,0.3c0.1,0.2,1.7,0,2.4-0.4c5.1-3.1,10.2-6.2,15.4-9.3c1-0.6,2-1.4,3-1.8c0.8-0.3,1.8,0,2.8,0
			c-0.4,0.8-0.7,1.7-1.3,2.4c-0.7,0.7-1.6,1.2-2.4,1.7c-5.5,3.5-11.1,6.9-16.6,10.4c-1.4,0.9-2.7,1.8-3.7,2.4
			c1.3,1.8,2.4,3.5,3.8,5.5c0.4-0.2,1.3-0.5,2.1-1c5-3.3,10-6.6,15.1-9.8 M350.3,372.9c-0.9,2.7-1.3,3.3-1.5,4.8
			c-0.5,2.7,0.7,3.6,3.3,3.5c10.8-0.1,20.5,0.8,30.6,2.3c8.2,1.2,30.1,7.4,30.2,8.5c0.3,2.1-2.1,2.2-3.8,2.7
			c-2.1,0.6-11.2,3.7-13.8,6.5c2.7-0.5,13.6-3,15.9-3.7c8.1-2.5,15.3-0.6,22.3,3.7c2,1.2,4.2,2.1,6.2,3.1c0.2-0.2,0.3-0.5,0.5-0.7
			c-1.4-1.2-2.9-2.5-4.3-3.7c-0.7-0.6-1.4-1.2-2-1.8c-1.3-1.5-1.1-2.9,1-3.1c3.9-0.3,8.1,0.1,12,0.4c4.2,0.3,9.6,0.5,12.1,0.5
			c-3.9-2.3-13.8-3.5-17.5-3.8c-6.5-0.4-13.1-0.2-19.6-0.7c-2.7-0.2-5.3-1.6-8-2.5c-8.3-2.8-16.6-5.9-25.1-8.3
			c-3.9-1.1-8.3-0.7-12.4-1c-3.5-0.2-7.1-0.3-10.6-0.7c-1.7-0.2-3.4-0.9-5-1c-1.3,0-4.6-0.3-5.3-0.8c-0.9-0.7,0.3-3,1.3-4.2H350.3z
			 M524.1,145.7c4.9,2.6,9.3,4.9,13.7,7.2c2.9,1.5,5.9,2.7,8.5,4.5c1.4,1,2.2,0.9,3.6,0.4c7.5-2.6,15.1-5.3,22.7-7.6
			c2.8-0.9,5.4-1.3,8.3-1.8c0.8-0.1,2.3-0.5,2.5-1.2c0.2-0.5-0.5-1.7-1.1-2.1c-2.5-1.7-5-3.6-7.8-4.6c-7.7-2.9-19.1-6.3-26.6-8.7
			c-4.3-1.4-8.1-1.2-10.8,2.9c-0.1,0.2-0.5,0.3-0.7,0.5C532.5,138.6,528.4,142,524.1,145.7z M318.6,437.2c2.9,0.4,8.9,1.4,12.1,1.9
			c-1.1-1.2-4.8-2.8-4.7-3.9c0.1-1.2,2.7-1.4,3.4-1.5c1.2-0.2,3.6-0.1,4.8-0.3c0-0.2,14.6,1.2,13.8-0.1c-0.8-1.2-15.9-2.4-19-2.6
			c-0.6,0-5.2,0-7.9-1.3c-1.2-0.6-16.5-14.6-25.7-22.9c-0.7-0.6-1.6-1.5-2.4-1.6c-2.5-0.3-2.4-1.6-1.8-3.4c0.8-2.4,1.4-4.8,2.3-7.9
			c-2.6,0.3-6-0.1-6.2,0.7c-1.3,3.7-1.8,7.6-2.5,11.5c0,0.2,0.2,0.5,0.4,0.7c1.8,1.6,3.5,3.4,5.5,4.7c5.3,3.7,11.1,6.8,16.1,10.9
			c4.7,3.9,7.6,7.4,8.9,10.3c0.4,1-2.8,2.8-3.3,3c-1.7,0.5-6.9,2.9-12.2,6.9c3.2-0.8,13.1-4.3,15.9-5
			C317.9,436.9,317.9,437.1,318.6,437.2z"/>
	</g>
	<g id="Beak_and_Feet">
		<g>
			<defs>
				<path id="SVGID_7_" d="M350.3,372.9c-0.9,2.7-1.3,3.3-1.5,4.8c-0.5,2.7,0.7,3.6,3.3,3.5c10.8-0.1,20.5,0.8,30.6,2.3
					c8.2,1.2,30.1,7.4,30.2,8.5c0.3,2.1-2.1,2.2-3.8,2.7c-2.1,0.6-11.2,3.7-13.8,6.5c2.7-0.5,13.6-3,15.9-3.7
					c8.1-2.5,15.3-0.6,22.3,3.7c2,1.2,4.2,2.1,6.2,3.1c0.2-0.2,0.3-0.5,0.5-0.7c-1.4-1.2-2.9-2.5-4.3-3.7c-0.7-0.6-1.4-1.2-2-1.8
					c-1.3-1.5-1.1-2.9,1-3.1c3.9-0.3,8.1,0.1,12,0.4c4.2,0.3,9.6,0.5,12.1,0.5c-3.9-2.3-13.8-3.5-17.5-3.8
					c-6.5-0.4-13.1-0.2-19.6-0.7c-2.7-0.2-5.3-1.6-8-2.5c-8.3-2.8-16.6-5.9-25.1-8.3c-3.9-1.1-8.3-0.7-12.4-1
					c-3.5-0.2-7.1-0.3-10.6-0.7c-1.7-0.2-3.4-0.9-5-1c-1.3,0-4.6-0.3-5.3-0.8c-0.9-0.7,0.3-3,1.3-4.2H350.3z M318.6,437.2
					c2.9,0.4,8.9,1.4,12.1,1.9c-1.1-1.2-4.8-2.8-4.7-3.9c0.1-1.2,2.7-1.4,3.4-1.5c1.2-0.2,3.6-0.1,4.8-0.3c0-0.2,14.6,1.2,13.8-0.1
					c-0.8-1.2-15.9-2.4-19-2.6c-0.6,0-5.2,0-7.9-1.3c-1.2-0.6-16.5-14.6-25.7-22.9c-0.7-0.6-1.6-1.5-2.4-1.6
					c-2.5-0.3-2.4-1.6-1.8-3.4c0.8-2.4,1.4-4.8,2.3-7.9c-2.6,0.3-6-0.1-6.2,0.7c-1.3,3.7-1.8,7.6-2.5,11.5c0,0.2,0.2,0.5,0.4,0.7
					c1.8,1.6,3.5,3.4,5.5,4.7c5.3,3.7,11.1,6.8,16.1,10.9c4.7,3.9,7.6,7.4,8.9,10.3c0.4,1-2.8,2.8-3.3,3c-1.7,0.5-6.9,2.9-12.2,6.9
					c3.2-0.8,13.1-4.3,15.9-5C317.9,436.9,317.9,437.1,318.6,437.2z"/>
			</defs>
			<clipPath id="SVGID_8_">
				<use xlink:href="#SVGID_7_"  style="overflow:visible;"/>
			</clipPath>
			<rect x="258.2" y="361.9" class="st13" width="227.9" height="95.4"/>
		</g>
		<path class="st14" d="M524.1,145.7c4.9,2.6,9.3,4.9,13.7,7.2c2.9,1.5,5.9,2.7,8.5,4.5c1.4,1,2.2,0.9,3.6,0.4
			c7.5-2.6,15.1-5.3,22.7-7.6c2.8-0.9,5.4-1.3,8.3-1.8c0.8-0.1,2.3-0.5,2.5-1.2c0.2-0.5-0.5-1.7-1.1-2.1c-2.5-1.7-5-3.6-7.8-4.6
			c-7.7-2.9-19.1-6.3-26.6-8.7c-4.3-1.4-8.1-1.2-10.8,2.9c-0.1,0.2-0.5,0.3-0.7,0.5C532.5,138.6,528.4,142,524.1,145.7z"/>
	</g>
	<path d="M489.5,133.7c-0.1-5.7,5.2-9.2,10.7-6.8c2.1,1,3.3,1.8,4.6,3.7c1,1.5,0.7,5.6-0.8,6.8c-2.6,2-6,2.9-9.6,2.2
		C491,138.9,489.5,137.5,489.5,133.7z"/>
</g>
<g id="Layer_4">
</g>
<g id="Layer_7">
</g>
<g id="Layer_1" class="st15">
	
		<image style="display:inline;overflow:visible;" width="1162" height="1014" xlink:href="../../../Downloads/Untitled_Artwork 2.png"  transform="matrix(0.5455 0 0 0.5455 -1.2756 28.1789)">
	</image>
</g>
</svg>
